<?xml version="1.0" encoding="UTF-8"?>
<svg width="700" height="720" viewBox="0 0 700 720" xmlns="http://www.w3.org/2000/svg" style="font-family: -apple-system, BlinkMacSystemFont, 'Segoe UI', Helvetica, Arial, sans-serif">
  <defs>
    <marker id="arrow" markerWidth="8" markerHeight="8" refX="4" refY="4" orient="auto">
      <polygon points="0 0, 8 4, 0 8" fill="#666"/>
    </marker>
    <filter id="shadow" x="-2%" y="-2%" width="104%" height="104%">
      <feDropShadow dx="1" dy="1" stdDeviation="2" flood-opacity="0.15"/>
    </filter>
  </defs>

  <!-- Input -->
  <rect x="200" y="20" width="300" height="60" rx="30" fill="#e8eaf6" stroke="#5c6bc0" stroke-width="2" filter="url(#shadow)"/>
  <text x="350" y="48" font-size="13" font-weight="600" fill="#283593" text-anchor="middle">YAML Spec / Web UI / Python API</text>
  <text x="350" y="65" font-size="10" fill="#5c6bc0" text-anchor="middle">declarative construct specification</text>

  <path d="M 350 80 L 350 110" stroke="#666" stroke-width="2" marker-end="url(#arrow)"/>

  <!-- Pass 1 -->
  <rect x="75" y="115" width="550" height="100" rx="8" fill="#e3f2fd" stroke="#1976d2" stroke-width="2" filter="url(#shadow)"/>
  <rect x="75" y="115" width="550" height="28" rx="8" fill="#1976d2"/>
  <rect x="75" y="130" width="550" height="13" fill="#1976d2"/>
  <text x="100" y="135" font-size="13" font-weight="700" fill="white">1  Part Resolution</text>
  <text x="100" y="168" font-size="11" fill="#1565c0">Protein sequences from UniProt, FPbase (w/ built-in fallback cache)</text>
  <text x="100" y="185" font-size="11" fill="#1565c0">Regulatory parts from curated local DB: promoters, RBSs, terminators, tags</text>
  <text x="100" y="202" font-size="11" fill="#1565c0">All parts reach RESOLVED state (sequences known)</text>

  <path d="M 350 215 L 350 245" stroke="#666" stroke-width="2" marker-end="url(#arrow)"/>

  <!-- Pass 2 -->
  <rect x="75" y="250" width="550" height="100" rx="8" fill="#e0f7fa" stroke="#00838f" stroke-width="2" filter="url(#shadow)"/>
  <rect x="75" y="250" width="550" height="28" rx="8" fill="#00838f"/>
  <rect x="75" y="265" width="550" height="13" fill="#00838f"/>
  <text x="100" y="270" font-size="13" font-weight="700" fill="white">2  Reverse Translation</text>
  <text x="100" y="303" font-size="11" fill="#006064">AA → DNA using host-specific codon frequency tables</text>
  <text x="100" y="320" font-size="11" fill="#006064">Supports E. coli, yeast, and mammalian hosts</text>
  <text x="100" y="337" font-size="11" fill="#006064">Parts reach CONCRETE state (DNA sequences assigned)</text>

  <path d="M 350 350 L 350 380" stroke="#666" stroke-width="2" marker-end="url(#arrow)"/>

  <!-- Pass 3 -->
  <rect x="75" y="385" width="550" height="100" rx="8" fill="#f3e5f5" stroke="#7b1fa2" stroke-width="2" filter="url(#shadow)"/>
  <rect x="75" y="385" width="550" height="28" rx="8" fill="#7b1fa2"/>
  <rect x="75" y="400" width="550" height="13" fill="#7b1fa2"/>
  <text x="100" y="405" font-size="13" font-weight="700" fill="white">3  Constraint Resolution</text>
  <text x="100" y="438" font-size="11" fill="#4a148c">DNA Chisel: codon-optimize while enforcing synthesis constraints</text>
  <text x="100" y="455" font-size="11" fill="#4a148c">No internal BsaI/BpiI sites · GC content 35-65% · No homopolymers &gt;6</text>
  <text x="100" y="472" font-size="11" fill="#4a148c">Vendor-compatible sequences ready for ordering</text>

  <path d="M 350 485 L 350 515" stroke="#666" stroke-width="2" marker-end="url(#arrow)"/>

  <!-- Pass 4 -->
  <rect x="75" y="520" width="550" height="100" rx="8" fill="#e8f5e9" stroke="#2e7d32" stroke-width="2" filter="url(#shadow)"/>
  <rect x="75" y="520" width="550" height="28" rx="8" fill="#2e7d32"/>
  <rect x="75" y="535" width="550" height="13" fill="#2e7d32"/>
  <text x="100" y="540" font-size="13" font-weight="700" fill="white">4  Assembly Planning</text>
  <text x="100" y="573" font-size="11" fill="#1b5e20">Compare strategies: Twist Clonal, 2-Part GG, 3-Part GG, IDT gBlock</text>
  <text x="100" y="590" font-size="11" fill="#1b5e20">Fully-loaded cost model with 17 configurable parameters</text>
  <text x="100" y="607" font-size="11" fill="#1b5e20">Labor, reagents, synthesis — recommends optimal strategy</text>

  <path d="M 350 620 L 350 650" stroke="#666" stroke-width="2" marker-end="url(#arrow)"/>

  <!-- Output -->
  <rect x="120" y="655" width="460" height="50" rx="25" fill="#fff3e0" stroke="#e65100" stroke-width="2" filter="url(#shadow)"/>
  <text x="350" y="680" font-size="13" font-weight="600" fill="#bf360c" text-anchor="middle">GenBank · Plasmid Map · Cost Breakdown · Assembly Plan</text>
</svg>
